<svg width="100" height="100" viewBox="0 0 100 100" fill="none" xmlns="http://www.w3.org/2000/svg">
<path d="M16.6668 41.6667L15.1936 43.14L13.7205 41.6667L15.1936 40.1936L16.6668 41.6667ZM85.4167 75C85.4167 76.1504 84.4838 77.0833 83.3334 77.0833C82.183 77.0833 81.2501 76.1504 81.2501 75H85.4167ZM36.027 63.9733L15.1936 43.14L18.1399 40.1936L38.9732 61.0267L36.027 63.9733ZM15.1936 40.1936L36.027 19.3602L38.9732 22.3065L18.1399 43.14L15.1936 40.1936ZM16.6668 39.5834H58.3334V43.75H16.6668V39.5834ZM85.4167 66.6667V75H81.2501V66.6667H85.4167ZM58.3334 39.5834C73.2909 39.5834 85.4167 51.7088 85.4167 66.6667H81.2501C81.2501 54.01 70.9901 43.75 58.3334 43.75V39.5834Z" fill="black"/>
</svg>
