<svg width="25" height="30" viewBox="0 0 25 30" fill="none" xmlns="http://www.w3.org/2000/svg">
<g clip-path="url(#clip0_20_323)">
<path d="M24.5941 4.43736H22.1991C21.9811 4.43736 21.8044 4.64936 21.8044 4.91104C21.8044 5.17272 21.9811 5.38471 22.1991 5.38471H24.1994V24.6153H10.92H5.61733H3.7168V23.8263V22.3737V21.1184V14.7553V13.5V12.0473V10.2473V6.45785V5.38471H20.9358C21.1539 5.38471 21.3305 5.17266 21.3305 4.91104C21.3305 4.64941 21.1539 4.43736 20.9358 4.43736H3.7168V0.473672C3.7168 0.212051 3.54014 0 3.32207 0H0.405469C0.187451 0 0.0107422 0.212051 0.0107422 0.473672C0.0107422 0.735293 0.187402 0.947344 0.405469 0.947344H2.9273V4.91098V5.98418H1.86377C1.6457 5.98418 1.46904 6.19617 1.46904 6.45785V10.2473C1.46904 10.509 1.64575 10.721 1.86377 10.721H2.92734V11.5737H1.86377C1.6457 11.5737 1.46904 11.7857 1.46904 12.0473V13.5C1.46904 13.7617 1.64575 13.9737 1.86377 13.9737H2.92734V14.2816H1.86377C1.6457 14.2816 1.46904 14.4936 1.46904 14.7553V21.1184C1.46904 21.3801 1.64575 21.5921 1.86377 21.5921H2.92734V21.9H1.86377C1.6457 21.9 1.46904 22.112 1.46904 22.3737V23.8263C1.46904 24.088 1.64575 24.3 1.86377 24.3H2.92734V25.089V29.5263C2.92734 29.788 3.104 30 3.32207 30C3.54014 30 3.7168 29.788 3.7168 29.5263V25.5627H5.22261V26.839C5.22261 27.1007 5.39927 27.3127 5.61733 27.3127H8.60293C8.821 27.3127 8.99766 27.1007 8.99766 26.839C8.99766 26.5773 8.821 26.3653 8.60293 26.3653H6.01211V25.5627H10.5252V26.3653H9.91856C9.70049 26.3653 9.52383 26.5773 9.52383 26.839C9.52383 27.1007 9.70049 27.3127 9.91856 27.3127H10.92C11.138 27.3127 11.3147 27.1007 11.3147 26.839V25.5627H24.5941C24.8122 25.5627 24.9889 25.3506 24.9889 25.089V4.91104C24.9889 4.64936 24.8122 4.43736 24.5941 4.43736ZM2.92734 23.3527H2.2585V22.8474H2.92734V23.3527ZM2.92734 20.6447H2.2585V15.2289H2.92734V20.6447ZM2.92734 13.0263H2.2585V12.5211H2.92734V13.0263ZM2.92734 9.77367H2.2585V6.93158H2.92734V9.77367Z" fill="black"/>
<path d="M5.69888 9.19533C6.35674 9.19533 6.89194 8.55314 6.89194 7.76371C6.89194 6.97428 6.35674 6.33203 5.69888 6.33203C5.04102 6.33203 4.50586 6.97428 4.50586 7.76371C4.50586 8.55314 5.04106 9.19533 5.69888 9.19533ZM5.69888 7.27943C5.92144 7.27943 6.10244 7.49664 6.10244 7.76371C6.10244 8.03066 5.92144 8.24793 5.69888 8.24793C5.47637 8.24793 5.29536 8.03066 5.29536 7.76371C5.29536 7.49664 5.47642 7.27943 5.69888 7.27943Z" fill="black"/>
<path d="M5.69888 23.6679C6.35674 23.6679 6.89194 23.0257 6.89194 22.2362C6.89194 21.4468 6.35674 20.8046 5.69888 20.8046C5.04102 20.8046 4.50586 21.4468 4.50586 22.2362C4.50586 23.0257 5.04106 23.6679 5.69888 23.6679ZM5.69888 21.752C5.92144 21.752 6.10244 21.9692 6.10244 22.2362C6.10244 22.5032 5.92144 22.7205 5.69888 22.7205C5.47637 22.7205 5.29536 22.5032 5.29536 22.2362C5.29536 21.9692 5.47642 21.752 5.69888 21.752Z" fill="black"/>
<path d="M22.2165 6.33215C21.5586 6.33215 21.0234 6.9744 21.0234 7.76383C21.0234 8.55327 21.5586 9.19545 22.2165 9.19545C22.8743 9.19545 23.4095 8.55327 23.4095 7.76383C23.4095 6.9744 22.8743 6.33215 22.2165 6.33215ZM22.2165 8.24799C21.9939 8.24799 21.8129 8.03073 21.8129 7.76377C21.8129 7.4967 21.9939 7.2795 22.2165 7.2795C22.439 7.2795 22.62 7.4967 22.62 7.76377C22.6201 8.03079 22.4391 8.24799 22.2165 8.24799Z" fill="black"/>
<path d="M22.2165 23.6679C22.8743 23.6679 23.4095 23.0257 23.4095 22.2362C23.4095 21.4468 22.8743 20.8046 22.2165 20.8046C21.5586 20.8046 21.0234 21.4468 21.0234 22.2362C21.0234 23.0257 21.5586 23.6679 22.2165 23.6679ZM22.2165 21.752C22.439 21.752 22.62 21.9692 22.62 22.2362C22.62 22.5032 22.439 22.7205 22.2165 22.7205C21.9939 22.7205 21.8129 22.5032 21.8129 22.2362C21.8129 21.9692 21.9939 21.752 22.2165 21.752Z" fill="black"/>
<path d="M16.0287 20.7632C18.647 20.7632 20.7771 18.207 20.7771 15.0651C20.7771 11.9232 18.647 9.36707 16.0287 9.36707C13.4104 9.36707 11.2803 11.9232 11.2803 15.0651C11.2803 18.207 13.4104 20.7632 16.0287 20.7632ZM15.294 16.6132C15.2902 16.6209 15.2865 16.6288 15.2827 16.6367C15.2506 16.704 15.22 16.7721 15.1912 16.8413C15.1896 16.8453 15.1876 16.849 15.186 16.8529C15.1849 16.8555 15.1842 16.8583 15.1832 16.861C14.9496 17.4291 14.825 18.0582 14.825 18.7009C14.825 18.9979 14.8507 19.2902 14.9018 19.5756C14.3141 19.3598 13.7711 18.9777 13.324 18.4605C13.3834 17.5001 13.7981 16.6247 14.4588 16.07C14.4693 16.0697 14.4797 16.069 14.4902 16.0687C14.5115 16.0684 14.5328 16.068 14.554 16.0684C14.5633 16.0685 14.5727 16.0689 14.5821 16.0692C14.6161 16.0701 14.65 16.0717 14.6839 16.0741C14.7102 16.076 14.7365 16.0779 14.7627 16.0807C14.7767 16.0822 14.7904 16.0843 14.8042 16.0861C14.8224 16.0884 14.8406 16.091 14.8587 16.0937C14.8591 16.0943 14.8595 16.0949 14.86 16.0955C14.874 16.1179 14.8885 16.1399 14.9034 16.1614C14.9082 16.1682 14.9132 16.1749 14.918 16.1816C14.9292 16.1972 14.9405 16.2127 14.9521 16.2279C14.9572 16.2345 14.9625 16.241 14.9677 16.2475C14.9798 16.2628 14.9921 16.2778 15.0047 16.2926C15.0092 16.2978 15.0137 16.3029 15.0183 16.3081C15.0326 16.3244 15.0471 16.3403 15.062 16.3559C15.0648 16.3589 15.0678 16.362 15.0707 16.365C15.0884 16.3833 15.1065 16.401 15.125 16.4184C15.1251 16.4185 15.1253 16.4186 15.1255 16.4188C15.1852 16.4745 15.2486 16.5249 15.3154 16.5687C15.3081 16.5834 15.3012 16.5984 15.294 16.6132ZM16.0287 19.8159C15.9444 19.8159 15.8611 19.8116 15.7782 19.8054C15.7001 19.5507 15.6496 19.287 15.6276 19.0167C15.7706 19.3052 15.9427 19.5723 16.141 19.8124C16.1036 19.8137 16.0664 19.8159 16.0287 19.8159ZM17.9556 19.1789C17.7015 19.3504 17.4327 19.487 17.1544 19.586C16.4582 19.0472 16.0125 18.1594 15.9409 17.1655C15.9486 17.1483 15.9566 17.1311 15.9648 17.114C15.9727 17.0973 15.9804 17.0805 15.9885 17.0641C16.006 17.0285 16.0241 16.9933 16.0428 16.9586C16.0505 16.9442 16.0588 16.9302 16.0667 16.9159C16.0793 16.8934 16.0919 16.8708 16.105 16.8487C16.1139 16.8335 16.1231 16.8186 16.1323 16.8036C16.1406 16.79 16.1491 16.7766 16.1576 16.7631C16.1604 16.7628 16.1633 16.7621 16.1663 16.7616C16.1857 16.7587 16.205 16.7554 16.2242 16.7516C16.2328 16.7499 16.2413 16.7481 16.2498 16.7461C16.2641 16.743 16.2782 16.7396 16.2923 16.7359C16.3051 16.7327 16.3178 16.7291 16.3304 16.7253C16.3391 16.7228 16.3478 16.7201 16.3564 16.7173C16.3737 16.7118 16.3909 16.7059 16.408 16.6997C16.4105 16.6987 16.4129 16.6978 16.4155 16.6968C16.526 16.6554 16.6315 16.5986 16.7296 16.5266C16.7344 16.5369 16.7396 16.547 16.7444 16.5572C16.7532 16.5757 16.7621 16.5939 16.771 16.6122C16.7806 16.6318 16.7902 16.6512 16.8 16.6705C16.8109 16.6917 16.8219 16.7128 16.8331 16.7338C16.8414 16.7494 16.8496 16.7651 16.8581 16.7805C16.862 16.7877 16.8656 16.7949 16.8696 16.8021C16.8711 16.805 16.8731 16.8075 16.8748 16.8102C17.1679 17.3365 17.5593 17.7801 18.0228 18.1012C18.2469 18.2566 18.4812 18.38 18.7237 18.4708C18.4948 18.7432 18.2379 18.9801 17.9556 19.1789ZM19.3363 17.6715C19.0983 17.6266 18.8686 17.5435 18.6493 17.4235C18.9485 17.4194 19.2457 17.3681 19.5329 17.2722C19.4726 17.4095 19.407 17.5427 19.3363 17.6715ZM19.8459 16.1109C19.4639 16.3508 19.0389 16.477 18.6096 16.477H18.6094C18.2183 16.477 17.8274 16.3726 17.4727 16.1741C17.4638 16.1568 17.4552 16.1393 17.4467 16.1217C17.439 16.1058 17.431 16.0901 17.4235 16.0741C17.4065 16.0379 17.3902 16.0014 17.3744 15.9645C17.3676 15.9487 17.3614 15.9327 17.3549 15.9167C17.3452 15.8931 17.3355 15.8694 17.3263 15.8454C17.3196 15.828 17.3134 15.8105 17.3069 15.793C17.3014 15.7779 17.296 15.7627 17.2907 15.7475C17.3646 15.5419 17.4057 15.3156 17.4057 15.0778C17.4057 15.0636 17.4051 15.0495 17.4048 15.0353C17.4202 15.0355 17.4354 15.0351 17.4507 15.0351C17.4529 15.0351 17.455 15.0352 17.4572 15.0352C17.4625 15.0352 17.4678 15.035 17.473 15.035C17.4972 15.0348 17.5214 15.0344 17.5455 15.0336C17.5689 15.0329 17.5923 15.0317 17.6157 15.0304C17.6256 15.0299 17.6356 15.0294 17.6456 15.0287C17.6553 15.0281 17.6652 15.0279 17.6749 15.0271C17.6791 15.0268 17.6833 15.0256 17.6876 15.0252C18.2133 14.9819 18.729 14.7971 19.189 14.4784C19.4128 14.3233 19.6187 14.1419 19.8053 13.9356C19.9589 14.6423 19.9741 15.39 19.8459 16.1109ZM19.3492 12.483C19.4196 12.6129 19.4848 12.7472 19.5446 12.8854C19.3918 13.1148 19.2146 13.3157 19.0155 13.4864C19.1622 13.1721 19.2748 12.8352 19.3492 12.483ZM16.6874 13.5447C16.6919 13.5355 16.6963 13.5262 16.7007 13.5169C16.7321 13.4509 16.7622 13.384 16.7905 13.3161C16.7923 13.3116 16.7945 13.3074 16.7964 13.3029C16.7976 13.2999 16.7984 13.2968 16.7996 13.2938C17.0329 12.726 17.1575 12.0973 17.1575 11.455C17.1575 11.1449 17.1295 10.8402 17.0739 10.543C17.6606 10.7367 18.2079 11.0949 18.6641 11.5885C18.6298 12.5915 18.2108 13.5095 17.5237 14.0859C17.5133 14.0862 17.5029 14.087 17.4925 14.0872C17.471 14.0875 17.4496 14.0879 17.4282 14.0876C17.4195 14.0874 17.4108 14.087 17.4021 14.0868C17.3626 14.0858 17.3232 14.0836 17.284 14.0806C17.2628 14.0789 17.2416 14.0775 17.2204 14.0752C17.2059 14.0737 17.1914 14.0714 17.1768 14.0696C17.1591 14.0673 17.1414 14.0648 17.1237 14.0622C17.1229 14.061 17.1221 14.0599 17.1214 14.0587C17.1077 14.0369 17.0935 14.0155 17.079 13.9944C17.0744 13.9878 17.0695 13.9814 17.0648 13.9749C17.0534 13.9589 17.0419 13.9431 17.0301 13.9277C17.0253 13.9215 17.0204 13.9155 17.0155 13.9093C17.0029 13.8935 16.9903 13.8779 16.9772 13.8628C16.9731 13.858 16.969 13.8534 16.9649 13.8487C16.9501 13.8319 16.9352 13.8155 16.9199 13.7995C16.9173 13.7969 16.9147 13.7942 16.9123 13.7915C16.8369 13.7137 16.7548 13.6449 16.6669 13.5873C16.674 13.5733 16.6806 13.5589 16.6874 13.5447ZM16.4494 14.5695C16.4644 14.5889 16.4785 14.6093 16.4917 14.6306C16.4945 14.635 16.4974 14.6394 16.5 14.6439C16.5149 14.669 16.529 14.6951 16.5413 14.7226C16.5536 14.75 16.5641 14.7783 16.5733 14.807C16.5748 14.8114 16.5761 14.8159 16.5774 14.8204C16.5856 14.8475 16.5927 14.8748 16.5982 14.9026C16.5986 14.9045 16.5991 14.9064 16.5995 14.9083C16.6115 14.971 16.6168 15.0353 16.6152 15.0994C16.6152 15.0996 16.6152 15.1 16.6151 15.1003C16.6144 15.1319 16.6118 15.1636 16.6077 15.1949C16.6076 15.1959 16.6075 15.1967 16.6073 15.1977C16.5987 15.261 16.5834 15.3233 16.5614 15.3828C16.5609 15.384 16.5604 15.3852 16.5599 15.3863C16.5502 15.4123 16.5388 15.4376 16.5264 15.4623C16.5237 15.4677 16.521 15.4731 16.5183 15.4785C16.5067 15.5004 16.4941 15.5215 16.481 15.5416C16.4786 15.5453 16.4765 15.5492 16.474 15.5529C16.4598 15.5739 16.4443 15.5935 16.4285 15.6123C16.4207 15.6214 16.4125 15.63 16.4043 15.6386C16.3953 15.6483 16.3861 15.6576 16.3767 15.6665C16.3673 15.6754 16.3578 15.6841 16.348 15.6923C16.338 15.7006 16.3276 15.7084 16.3172 15.7161C16.308 15.7228 16.2991 15.7299 16.2897 15.7361C16.2703 15.7488 16.2503 15.7602 16.2298 15.7703C16.2232 15.7736 16.2164 15.7762 16.2096 15.7792C16.1929 15.7867 16.176 15.7936 16.1588 15.7993C16.1525 15.8014 16.146 15.8033 16.1396 15.8052C16.1198 15.8109 16.0996 15.8157 16.0791 15.8191C16.0753 15.8198 16.0716 15.8206 16.0678 15.8212C16.0422 15.825 16.0164 15.8271 15.9902 15.8271L15.983 15.827C15.977 15.8269 15.971 15.8261 15.9651 15.8259C15.9421 15.8248 15.9192 15.8221 15.8966 15.8179C15.8929 15.8172 15.8893 15.8167 15.8857 15.816C15.8075 15.7998 15.7332 15.7659 15.6663 15.717C15.6645 15.7156 15.6627 15.7144 15.6609 15.713C15.6169 15.68 15.5763 15.6405 15.5401 15.5953C15.5377 15.5922 15.5354 15.589 15.5331 15.5859C15.5181 15.5665 15.5039 15.546 15.4906 15.5244C15.4878 15.5201 15.4851 15.5158 15.4824 15.5113C15.4677 15.4868 15.4542 15.4611 15.4419 15.4342C15.4404 15.4308 15.4391 15.4274 15.4375 15.424C15.4341 15.4162 15.4312 15.4083 15.428 15.4004C15.4186 15.3769 15.4102 15.3528 15.403 15.3285C15.4019 15.3249 15.4007 15.3213 15.3997 15.3177C15.375 15.2298 15.3643 15.1376 15.3675 15.0459C15.3675 15.0437 15.3676 15.0416 15.3677 15.0394C15.3717 14.9475 15.3896 14.8562 15.4213 14.7708C15.4223 14.7681 15.4235 14.7656 15.4245 14.7629C15.4335 14.7394 15.4439 14.7164 15.4551 14.6938C15.458 14.6879 15.461 14.6819 15.464 14.6762C15.4754 14.6546 15.4876 14.6341 15.5006 14.6143C15.5032 14.6103 15.5055 14.606 15.5082 14.6021C15.5225 14.5811 15.5378 14.5616 15.5536 14.5429C15.5613 14.5337 15.5696 14.5252 15.5777 14.5166C15.5869 14.5073 15.5961 14.4978 15.6057 14.4889C15.6149 14.4801 15.6243 14.4716 15.6339 14.4635C15.6443 14.4548 15.655 14.4467 15.6658 14.4389C15.6746 14.4324 15.6832 14.4256 15.6922 14.4196C15.7118 14.4068 15.732 14.3952 15.7526 14.385C15.7587 14.382 15.7652 14.3796 15.7714 14.3768C15.7886 14.3691 15.8061 14.362 15.8239 14.356C15.8299 14.3541 15.8359 14.3522 15.8419 14.3505C15.8623 14.3445 15.883 14.3397 15.904 14.3361C15.9074 14.3355 15.9107 14.3347 15.9142 14.3342C15.9398 14.3304 15.9657 14.3283 15.992 14.3283L15.9992 14.3284C16.0053 14.3285 16.0112 14.3292 16.0171 14.3295C16.04 14.3306 16.0626 14.3332 16.0851 14.3373C16.089 14.338 16.093 14.3387 16.0968 14.3395C16.149 14.3503 16.1995 14.3687 16.2471 14.3945C16.2475 14.3947 16.2478 14.3949 16.2482 14.3951C16.2713 14.4078 16.2937 14.4222 16.3154 14.4381C16.3175 14.4396 16.3196 14.441 16.3216 14.4426C16.3654 14.4755 16.4059 14.5149 16.4419 14.56C16.4446 14.563 16.4469 14.5663 16.4494 14.5695ZM16.0286 10.3145C16.0843 10.3145 16.1396 10.3168 16.1948 10.3196C16.2784 10.5839 16.332 10.8582 16.3547 11.1398C16.2073 10.8422 16.0288 10.5671 15.8225 10.321C15.8907 10.3168 15.9595 10.3145 16.0286 10.3145ZM14.8604 10.5955C15.5379 11.1365 15.9711 12.0126 16.0416 12.9904C16.0337 13.0077 16.0255 13.0251 16.0173 13.0424C16.0095 13.0589 16.0019 13.0756 15.9938 13.0919C15.9787 13.1225 15.9629 13.1527 15.947 13.1827C15.9357 13.2038 15.9241 13.2247 15.9124 13.2456C15.9011 13.2657 15.8899 13.2859 15.8782 13.3058C15.8685 13.3223 15.8584 13.3385 15.8484 13.3549C15.8407 13.3676 15.8327 13.3801 15.8248 13.3927C15.8219 13.3932 15.8189 13.3937 15.816 13.3942C15.7966 13.3971 15.7773 13.4004 15.7582 13.4041C15.7495 13.4058 15.741 13.4078 15.7324 13.4097C15.7182 13.4128 15.7041 13.4161 15.6902 13.4198C15.6772 13.4231 15.6644 13.4267 15.6516 13.4305C15.6431 13.433 15.6347 13.4356 15.6262 13.4383C15.6087 13.4439 15.5913 13.4498 15.574 13.4562C15.5718 13.457 15.5695 13.4578 15.5673 13.4587C15.4566 13.5001 15.3509 13.5569 15.2527 13.6291C15.2478 13.6185 15.2425 13.6082 15.2375 13.5977C15.2291 13.58 15.2206 13.5625 15.212 13.545C15.202 13.5246 15.1918 13.5043 15.1816 13.4841C15.1715 13.4643 15.1611 13.4445 15.1507 13.4249C15.1417 13.4078 15.1326 13.3907 15.1233 13.3738C15.1197 13.3671 15.1163 13.3603 15.1126 13.3538C15.1111 13.3511 15.1093 13.3489 15.1078 13.3462C14.8146 12.8197 14.4231 12.3759 13.9595 12.0546C13.7529 11.9115 13.5374 11.7954 13.3146 11.7069C13.7512 11.1992 14.2819 10.816 14.8604 10.5955ZM12.7013 12.496C12.9201 12.543 13.1316 12.6218 13.3338 12.7325C13.0604 12.7364 12.7882 12.7794 12.5236 12.8603C12.5784 12.7354 12.6378 12.614 12.7013 12.496ZM12.1242 15.078C12.1242 14.7098 12.1598 14.3446 12.2302 13.9896C12.5875 13.786 12.9795 13.6792 13.3738 13.6792C13.7646 13.6791 14.1552 13.7835 14.5098 13.9818C14.5186 13.999 14.5271 14.0164 14.5356 14.0337C14.5434 14.0498 14.5515 14.0656 14.5591 14.0818C14.576 14.118 14.5925 14.1546 14.6083 14.1916C14.6145 14.206 14.6201 14.2207 14.6261 14.2352C14.6365 14.2605 14.6469 14.2858 14.6567 14.3115C14.6628 14.3275 14.6687 14.3437 14.6745 14.3598C14.6804 14.3759 14.6861 14.3921 14.6918 14.4083C14.618 14.6139 14.5769 14.8402 14.5769 15.0779C14.5769 15.0922 14.5775 15.1063 14.5778 15.1205C14.5625 15.1203 14.5473 15.1207 14.532 15.1207C14.5247 15.1207 14.5175 15.1207 14.5103 15.1208C14.4849 15.121 14.4595 15.1214 14.4341 15.1223C14.4143 15.1229 14.3945 15.1239 14.3747 15.1249C14.3604 15.1257 14.3462 15.1264 14.3319 15.1273C14.3238 15.1279 14.3157 15.1281 14.3076 15.1287C14.3042 15.1289 14.3008 15.1299 14.2974 15.1303C13.7697 15.173 13.2544 15.3581 12.7935 15.6776C12.5907 15.8181 12.4022 15.9807 12.2294 16.164C12.1595 15.8104 12.1242 15.4473 12.1242 15.078ZM12.4913 17.1944C12.6323 16.9957 12.7917 16.8193 12.9688 16.6677C12.8377 16.948 12.7342 17.2465 12.6603 17.5577C12.5995 17.4399 12.5434 17.3186 12.4913 17.1944Z" fill="black"/>
<path d="M16.0219 22.7099C19.5647 22.7099 22.4469 19.2512 22.4469 15C22.4469 10.7488 19.5646 7.29004 16.0219 7.29004C13.9433 7.29004 12.0922 8.48113 10.9171 10.3241H6.1416C5.63486 10.3241 5.22266 10.8278 5.22266 11.447V18.6187C5.22266 19.2379 5.63486 19.7416 6.1416 19.7416H10.9591C12.1361 21.5472 13.968 22.7099 16.0219 22.7099ZM6.1416 18.7943C6.07021 18.7943 6.01211 18.7155 6.01211 18.6187V11.447C6.01211 11.3502 6.07021 11.2715 6.1416 11.2715H10.3966C9.9854 12.1616 9.72856 13.1356 9.63623 14.1497C9.63394 14.1751 9.63135 14.2004 9.62925 14.2258C9.62607 14.2635 9.62354 14.3014 9.62085 14.3393C9.61812 14.3782 9.61548 14.4171 9.61323 14.4562C9.61133 14.4889 9.60962 14.5216 9.60801 14.5544C9.60576 14.6017 9.604 14.6491 9.60244 14.6967C9.60161 14.723 9.60054 14.7494 9.5999 14.7757C9.5981 14.8503 9.59697 14.925 9.59697 15.0001C9.59697 15.0762 9.59815 15.1519 9.59995 15.2274C9.60059 15.2542 9.60161 15.281 9.60254 15.3078C9.6041 15.3556 9.60591 15.4033 9.6082 15.4508C9.60982 15.4845 9.61157 15.5181 9.61353 15.5516C9.61577 15.5898 9.61841 15.6279 9.62114 15.666C9.62393 15.7056 9.62661 15.7451 9.62993 15.7845C9.63076 15.7945 9.63189 15.8045 9.63272 15.8146C9.72446 16.8672 9.99316 17.8762 10.4275 18.7942H6.1416V18.7943ZM10.4711 16.1703C10.4622 16.1092 10.4541 16.0477 10.4465 15.9859C10.4409 15.9399 10.4354 15.8938 10.4306 15.8475C10.427 15.8136 10.4239 15.7794 10.4208 15.7452C10.4161 15.6936 10.4118 15.6418 10.4081 15.5899C10.4065 15.5678 10.4046 15.5456 10.4032 15.5234C10.3985 15.4491 10.395 15.3746 10.3922 15.2999C10.3915 15.2791 10.3909 15.2583 10.3902 15.2375C10.388 15.1585 10.3864 15.0793 10.3864 14.9999C10.3864 14.9218 10.3879 14.8439 10.3901 14.7663C10.3907 14.7454 10.3914 14.7246 10.3921 14.7038C10.3948 14.6302 10.3981 14.5567 10.4027 14.4834C10.4039 14.4651 10.4055 14.447 10.4067 14.4288C10.4106 14.3729 10.4151 14.3171 10.4202 14.2614C10.4231 14.2289 10.4262 14.1964 10.4295 14.164C10.434 14.1201 10.4392 14.0763 10.4444 14.0325C10.4519 13.97 10.46 13.9077 10.4689 13.8456C10.472 13.8244 10.475 13.8031 10.4783 13.7818C10.9577 10.6323 13.261 8.23738 16.022 8.23738C19.1294 8.23738 21.6575 11.2711 21.6575 14.9999C21.6575 18.7288 19.1294 21.7625 16.022 21.7625C13.2611 21.7625 10.9578 19.3678 10.4783 16.2184C10.4758 16.2024 10.4734 16.1864 10.4711 16.1703Z" fill="black"/>
</g>
<defs>
<clipPath id="clip0_20_323">
<rect width="25" height="30" fill="white"/>
</clipPath>
</defs>
</svg>
