<svg width="27" height="32" viewBox="0 0 27 32" fill="none" xmlns="http://www.w3.org/2000/svg">
<path d="M3.91665 14H11.4167C11.6466 14 11.8333 13.776 11.8333 13.5C11.8333 13.224 11.6466 13 11.4167 13H3.91665C3.68667 13 3.5 13.224 3.5 13.5C3.5 13.776 3.68667 14 3.91665 14Z" fill="black" stroke="black" stroke-width="0.125"/>
<path d="M23.0955 4.99996C23.3255 4.99996 23.5122 4.77596 23.5122 4.49998C23.5122 4.224 23.3255 4 23.0955 4H23.0909C22.8613 4 22.6768 4.224 22.6768 4.49998C22.6768 4.77596 22.8655 4.99996 23.0955 4.99996Z" fill="black" stroke="black" stroke-width="0.125"/>
<path d="M4.34614 4.49998C4.34614 4.224 4.15991 4 3.92949 4H3.92534C3.69536 4 3.51074 4.224 3.51074 4.49998C3.51074 4.77596 3.69907 4.99996 3.92949 4.99996C4.15991 4.99996 4.34614 4.77602 4.34614 4.49998Z" fill="black" stroke="black" stroke-width="0.125"/>
<path d="M11 11C11.4596 11 11.8333 10.5515 11.8333 10V8.00002C11.8333 7.44854 11.4596 7 11 7H9.33335C8.87378 7 8.5 7.44848 8.5 8.00002V10C8.5 10.5515 8.87373 11 9.33335 11H11ZM9.33335 8.00002H11L11.0004 10H9.33335V8.00002Z" fill="black" stroke="black" stroke-width="0.125"/>
<path d="M23.9167 1H3.08335C2.0125 1 1 2.215 1 3.50002V26.5C1 26.776 1.18667 27 1.41665 27C1.64663 27 1.8333 26.776 1.8333 26.5V3.50002C1.8333 2.771 2.47578 2.00002 3.0833 2.00002H23.9167C24.5242 2.00002 25.1667 2.771 25.1667 3.50002V28.5C25.1667 29.2291 24.5242 30 23.9167 30H3.08335C2.47583 30 1.83335 29.2291 1.83335 28.5C1.83335 28.2241 1.64668 28.0001 1.4167 28.0001C1.18672 28.0001 1 28.224 1 28.5C1 29.785 2.0125 31 3.08335 31H23.9167C24.9875 31 26 29.785 26 28.5V3.50002C26 2.215 24.9875 1 23.9167 1Z" fill="black" stroke="black" stroke-width="0.125"/>
<path d="M3.5 10C3.5 10.5515 3.87373 11 4.33335 11H6C6.45957 11 6.83335 10.5515 6.83335 10V8.00002C6.83335 7.44854 6.45962 7 6 7H4.33335C3.87378 7 3.5 7.44848 3.5 8.00002V10ZM4.33335 8.00002H6L6.00044 10H4.33335V8.00002Z" fill="black" stroke="black" stroke-width="0.125"/>
<path d="M6.41694 18.9999C6.64692 18.9999 6.83359 18.7759 6.83359 18.5C6.83359 18.224 6.64692 18 6.41694 18H6.00029V16.5C6.00029 16.224 5.81362 16 5.58364 16C5.35366 16 5.16699 16.224 5.16699 16.5V25.5C5.16699 25.776 5.35366 26 5.58364 26C5.81362 26 6.00029 25.776 6.00029 25.5V24.9999H6.41694C6.64692 24.9999 6.83359 24.7759 6.83359 24.5C6.83359 24.224 6.64692 24 6.41694 24H6.00029V23H6.41694C6.64692 23 6.83359 22.776 6.83359 22.5C6.83359 22.224 6.64692 22 6.41694 22H6.00029V21H6.41694C6.64692 21 6.83359 20.776 6.83359 20.5C6.83359 20.224 6.64692 20 6.41694 20H6.00029V18.9999H6.41694Z" fill="black" stroke="black" stroke-width="0.125"/>
<path d="M23.0955 28C23.3255 28 23.5122 27.776 23.5122 27.5C23.5122 27.224 23.3255 27 23.0955 27H23.0909C22.8613 27 22.6768 27.224 22.6768 27.5C22.6768 27.776 22.8655 28 23.0955 28Z" fill="black" stroke="black" stroke-width="0.125"/>
<path d="M15.5833 6C15.3529 6 15.1667 6.224 15.1667 6.49998V6.99996C14.7071 6.99996 14.3333 7.44844 14.3333 7.99998V8.50002H13.9166C13.6867 8.50002 13.5 8.72402 13.5 9C13.5 9.27598 13.6867 9.49998 13.9166 9.49998H14.3333V9.99996C14.3333 10.5514 14.707 11 15.1667 11V11.5C15.1667 11.7759 15.3529 11.9999 15.5833 11.9999C15.8137 11.9999 16 11.7759 16 11.5V11H16.8333V11.5C16.8333 11.7759 17.0195 11.9999 17.25 11.9999C17.4804 11.9999 17.6666 11.7759 17.6666 11.5V11H18.5V11.5C18.5 11.7759 18.6862 11.9999 18.9166 11.9999C19.147 11.9999 19.3333 11.7759 19.3333 11.5V11H20.1666V11.5C20.1666 11.7759 20.3528 11.9999 20.5833 11.9999C20.8137 11.9999 20.9999 11.7759 20.9999 11.5V11C21.4595 11 21.8333 10.5515 21.8333 9.99996V9.49998H22.2499C22.4803 9.49998 22.6666 9.27598 22.6666 9C22.6666 8.72402 22.4804 8.50002 22.25 8.50002H21.8333V8.00004C21.8333 7.44855 21.4596 7.00002 21 7.00002V6.50004C21 6.22406 20.8137 6.00006 20.5833 6.00006C20.3529 6.00006 20.1667 6.22406 20.1667 6.50004V7.00002H19.3333V6.50004C19.3333 6.22406 19.1471 6.00006 18.9166 6.00006C18.6862 6.00006 18.5 6.22406 18.5 6.50004V7.00002H17.6667V6.50004C17.6667 6.22406 17.4804 6.00006 17.25 6.00006C17.0196 6.00006 16.8333 6.22406 16.8333 6.50004V7.00002H16V6.50004C16 6.224 15.8137 6 15.5833 6ZM21 8.00004V8.99906V9.00006V9.00105L21.0003 10.0001H15.1666V8.0001L21 8.00004Z" fill="black" stroke="black" stroke-width="0.125"/>
<path d="M3.92534 27C3.69536 27 3.51074 27.224 3.51074 27.5C3.51074 27.776 3.69907 28 3.92949 28C4.15991 28 4.34614 27.776 4.34614 27.5C4.34614 27.224 4.15991 27 3.92949 27H3.92534Z" fill="black" stroke="black" stroke-width="0.125"/>
<path d="M12.9628 21.4785C13.1382 21.5435 13.3282 21.4606 13.4303 21.2776C13.4374 21.2646 14.1565 20 15.5836 20C16.4382 20 16.8832 20.4595 17.0982 20.8006C16.6436 21.1671 16.0003 21.956 16.0003 23.5C16.0003 24.494 16.2707 25.269 16.5774 25.8275C15.2461 25.3971 14.1545 24.1925 13.7078 22.565C13.6361 22.3025 13.3999 22.16 13.182 22.2465C12.9632 22.3325 12.8445 22.6156 12.9166 22.8775C13.5932 25.3435 15.5024 27 17.667 27C17.8503 27 18.0124 26.8555 18.0657 26.645C18.119 26.434 18.0507 26.2065 17.8982 26.084C17.8874 26.0755 16.8336 25.2125 16.8336 23.5C16.8336 22.4745 17.2166 21.94 17.5007 21.683C17.8057 22.228 18.4636 23 19.7503 23C20.5786 23 21.2245 22.6756 21.6899 22.3075C21.3315 23.905 20.3278 25.2145 18.9711 25.7506C18.7524 25.8366 18.6336 26.1196 18.7053 26.3815C18.7632 26.5921 18.9262 26.7256 19.1012 26.7256C19.1445 26.7256 19.1883 26.7175 19.2316 26.7001C21.2862 25.8885 22.667 23.5981 22.667 21.0001C22.667 20.78 22.547 20.585 22.3711 20.5216C22.1957 20.4571 22.0053 20.5396 21.9037 20.7226C21.8966 20.7356 21.1774 22.0001 19.7503 22.0001C18.8958 22.0001 18.4508 21.5406 18.2357 21.1996C18.6903 20.8336 19.3336 20.044 19.3336 18.5001C19.3336 17.5061 19.0632 16.7311 18.7565 16.1726C20.0878 16.6031 21.1794 17.8076 21.6257 19.4351C21.6974 19.6976 21.9336 19.8401 22.152 19.7536C22.3703 19.6676 22.4891 19.3851 22.4174 19.1226C21.7408 16.6571 19.8316 15.0001 17.667 15.0001C17.4836 15.0001 17.3216 15.1446 17.2683 15.3551C17.2149 15.5661 17.2833 15.7937 17.4357 15.9161C17.4466 15.9246 18.5003 16.7876 18.5003 18.5001C18.5003 19.5256 18.1174 20.0601 17.8333 20.3171C17.5283 19.7721 16.8703 19.0001 15.5837 19.0001C14.7554 19.0001 14.1095 19.3246 13.6441 19.6926C14.0024 18.0951 15.0066 16.7856 16.3628 16.2496C16.5816 16.1632 16.7008 15.8806 16.6287 15.6181C16.5566 15.3561 16.3199 15.2131 16.1024 15.2996C14.0474 16.1116 12.667 18.4021 12.667 21.0001C12.6669 21.22 12.7874 21.415 12.9628 21.4785Z" fill="black" stroke="black" stroke-width="0.125"/>
<path d="M7.66699 16.5V25.5C7.66699 25.776 7.85366 26 8.08364 26C8.31362 26 8.50029 25.776 8.50029 25.5V16.5C8.50029 16.224 8.31362 16 8.08364 16C7.85366 16 7.66699 16.224 7.66699 16.5Z" fill="black" stroke="black" stroke-width="0.125"/>
<path d="M9.33301 16.5V25.5C9.33301 25.776 9.51968 26 9.74966 26C9.97964 26 10.1663 25.776 10.1663 25.5V16.5C10.1663 16.224 9.97964 16 9.74966 16C9.51968 16 9.33301 16.224 9.33301 16.5Z" fill="black" stroke="black" stroke-width="0.125"/>
</svg>
