<svg width="25" height="30" viewBox="0 0 25 30" fill="none" xmlns="http://www.w3.org/2000/svg">
<path d="M3.90625 3.51562C3.36861 3.51562 2.92969 4.04234 2.92969 4.6875V25.3125C2.92969 25.9577 3.36861 26.4844 3.90625 26.4844H21.0938C21.6314 26.4844 22.0703 25.9577 22.0703 25.3125V4.6875C22.0703 4.04234 21.6314 3.51562 21.0938 3.51562H3.90625ZM3.90625 3.98438H21.0938C21.4217 3.98438 21.6797 4.29391 21.6797 4.6875V25.3125C21.6797 25.7061 21.4217 26.0156 21.0938 26.0156H3.90625C3.57826 26.0156 3.32031 25.7061 3.32031 25.3125V4.6875C3.32031 4.29391 3.57826 3.98438 3.90625 3.98438Z" fill="black"/>
<path d="M8.98438 9.14062C8.23033 9.14062 7.61719 9.8764 7.61719 10.7812V19.2188C7.61719 20.1236 8.23033 20.8594 8.98438 20.8594H16.0156C16.7697 20.8594 17.3828 20.1236 17.3828 19.2188V10.7812C17.3828 9.8764 16.7697 9.14062 16.0156 9.14062H8.98438ZM8.98438 9.60938H16.0156C16.56 9.60938 16.9922 10.128 16.9922 10.7812V19.2188C16.9922 19.872 16.56 20.3906 16.0156 20.3906H8.98438C8.43998 20.3906 8.00781 19.872 8.00781 19.2188V10.7812C8.00781 10.128 8.43998 9.60938 8.98438 9.60938Z" fill="black"/>
<path d="M5.33774 5.3916C4.87224 5.3916 4.49316 5.84649 4.49316 6.40509V8.90631H4.88226V6.40509C4.88226 6.09807 5.08189 5.85852 5.33774 5.85852H7.81271V5.3916H5.33774Z" fill="black"/>
<path d="M19.5316 24.8438C19.9971 24.8438 20.3762 24.3889 20.3762 23.8303V21.3291H19.9871V23.8303C19.9871 24.1373 19.7875 24.3769 19.5316 24.3769H17.0566V24.8438H19.5316Z" fill="black"/>
<path d="M20.7033 6.09381C20.7033 5.53521 20.3243 5.08032 19.8588 5.08032H17.7744V5.54724H19.8588C20.1146 5.54724 20.3142 5.78679 20.3142 6.09381V9.06378H20.7033V6.09381Z" fill="black"/>
<path d="M4.29688 23.9062C4.29688 24.4649 4.67595 24.9197 5.14145 24.9197H7.2258V24.4528H5.14145C4.8856 24.4528 4.68598 24.2133 4.68598 23.9062V20.9363H4.29688V23.9062Z" fill="black"/>
<path d="M8.39844 17.3438V19.9219H10.5469V19.4531H8.78906V17.3438H8.39844Z" fill="black"/>
<path d="M14.4531 10.0781V10.5469H16.2109V12.6562H16.6016V10.0781H14.4531Z" fill="black"/>
</svg>
