<svg width="25" height="30" viewBox="0 0 25 30" fill="none" xmlns="http://www.w3.org/2000/svg">
<g clip-path="url(#clip0_21_378)">
<path d="M8.07563 16.7575C8.15586 16.6613 8.15586 16.5047 8.07563 16.4084L8.02261 16.3448C7.94238 16.2485 7.81196 16.2485 7.73179 16.3448L7.3291 16.8271L7.67373 17.2402L8.07563 16.7575Z" fill="black"/>
<path d="M8.36147 18.0661L8.76411 17.5838C8.84438 17.487 8.84438 17.331 8.76411 17.2347L8.7104 17.1702C8.63018 17.074 8.49976 17.074 8.41953 17.1702L8.01758 17.6534L8.36147 18.0661Z" fill="black"/>
<path d="M9.45259 18.0601L9.39956 17.9964C9.31934 17.9001 9.18892 17.9001 9.10869 17.9964L8.70605 18.4788L9.05068 18.8919L9.45264 18.4092C9.53281 18.3128 9.53281 18.1563 9.45259 18.0601Z" fill="black"/>
<path d="M10.1404 19.235C10.2213 19.1387 10.2213 18.9827 10.1411 18.8863L10.0874 18.8219C10.0072 18.7256 9.87676 18.7256 9.79648 18.8219L9.39453 19.305L9.73843 19.7177L10.1404 19.235Z" fill="black"/>
<path d="M4.68965 19.9954L4.28774 20.4781C4.20747 20.5744 4.20747 20.7304 4.28774 20.8267L4.34146 20.8912C4.42173 20.9875 4.55142 20.9875 4.63237 20.8912L5.03433 20.4089L4.68965 19.9954Z" fill="black"/>
<path d="M5.37814 20.8215L4.97618 21.3038C4.89596 21.4001 4.89596 21.5567 4.97618 21.6529L5.02921 21.7166C5.10948 21.8129 5.23986 21.8129 5.32013 21.7166L5.72208 21.2342L5.37814 20.8215Z" fill="black"/>
<path d="M6.06559 21.647L5.66368 22.1297C5.58346 22.2261 5.58346 22.3821 5.66368 22.4784L5.71666 22.5429C5.79762 22.6391 5.92736 22.6391 6.00758 22.5429L6.41027 22.0601L6.06559 21.647Z" fill="black"/>
<path d="M6.75424 22.4728L6.35229 22.9555C6.27202 23.0518 6.27202 23.2083 6.35156 23.3042L6.40527 23.3682C6.48549 23.4645 6.61591 23.4645 6.69619 23.3682L7.09814 22.8859L6.75424 22.4728Z" fill="black"/>
<path d="M10.7749 19.6476C10.6953 19.5518 10.5649 19.5518 10.4847 19.6481L10.082 20.1304L10.4259 20.5431L10.8286 20.0607C10.9088 19.9645 10.9088 19.8084 10.8286 19.7116L10.7749 19.6476Z" fill="black"/>
<path d="M4.38867 19.1187L8.51758 24.0734L10.7278 21.4211L6.59891 16.4664L4.38867 19.1187Z" fill="black"/>
<path d="M7.0397 23.7812C6.95942 23.8775 6.95942 24.0335 7.0397 24.1298L7.09272 24.1939C7.17368 24.2906 7.30337 24.2902 7.38359 24.1939L7.78555 23.7111L7.44165 23.2985L7.0397 23.7812Z" fill="black"/>
<path d="M12.7427 11.158C12.8229 11.0613 12.8229 10.9052 12.7427 10.8089L12.689 10.7445C12.6087 10.6482 12.4783 10.6482 12.398 10.7445L11.9961 11.2277L12.34 11.6403L12.7427 11.158Z" fill="black"/>
<path d="M13.0282 12.466L13.4302 11.9833C13.5104 11.887 13.5104 11.7305 13.4302 11.6342L13.3771 11.5706C13.2969 11.4743 13.1665 11.4743 13.0862 11.5706L12.6836 12.053L13.0282 12.466Z" fill="black"/>
<path d="M14.1196 12.4601L14.0659 12.3961C13.9857 12.2998 13.8553 12.2998 13.775 12.3961L13.373 12.8792L13.7169 13.2919L14.1196 12.8091C14.1999 12.7128 14.1999 12.5568 14.1196 12.4601Z" fill="black"/>
<path d="M14.8071 13.635C14.8873 13.5387 14.8873 13.3822 14.8071 13.2859L14.7533 13.2219C14.6731 13.126 14.5434 13.126 14.4632 13.2223L14.0605 13.7047L14.4052 14.1173L14.8071 13.635Z" fill="black"/>
<path d="M9.00698 15.2909C9.08725 15.3872 9.21767 15.3872 9.29789 15.2909L9.69985 14.8085L9.35595 14.3959L8.954 14.8782C8.87377 14.9745 8.87304 15.131 8.954 15.2273L9.00698 15.2909Z" fill="black"/>
<path d="M9.6422 15.7039C9.56198 15.8002 9.56198 15.9563 9.6422 16.0525L9.69591 16.117C9.77614 16.2134 9.90587 16.2134 9.98605 16.117L10.3887 15.6343L10.0441 15.2212L9.6422 15.7039Z" fill="black"/>
<path d="M10.3307 16.8787L10.3837 16.9424C10.464 17.0387 10.5944 17.0387 10.6747 16.9424L11.0766 16.46L10.7327 16.0474L10.3308 16.5297C10.2504 16.626 10.2504 16.7824 10.3307 16.8787Z" fill="black"/>
<path d="M11.4202 16.8728L11.0182 17.3551C10.9379 17.4519 10.9379 17.6079 11.0182 17.7042L11.0719 17.7687C11.1522 17.865 11.2819 17.865 11.3621 17.7682L11.7647 17.2859L11.4202 16.8728Z" fill="black"/>
<path d="M15.4419 14.0477C15.3616 13.9514 15.2312 13.9514 15.151 14.0477L14.749 14.5309L15.0929 14.9435L15.4949 14.4608C15.5751 14.3641 15.5758 14.2085 15.4949 14.1118L15.4419 14.0477Z" fill="black"/>
<path d="M9.05566 13.5184L13.1839 18.4727L15.3941 15.8204L11.2652 10.8661L9.05566 13.5184Z" fill="black"/>
<path d="M11.7067 18.1812C11.6265 18.2775 11.6265 18.434 11.7061 18.5299L11.7598 18.5939C11.84 18.6906 11.9704 18.6902 12.0506 18.5939L12.4526 18.1116L12.1087 17.6985L11.7067 18.1812Z" fill="black"/>
<path d="M17.4087 5.55763C17.489 5.46136 17.489 5.30486 17.4087 5.20859L17.3557 5.14496C17.2754 5.04869 17.145 5.04869 17.0647 5.14496L16.6621 5.6273L17.0067 6.04039L17.4087 5.55763Z" fill="black"/>
<path d="M17.6955 6.86624L18.0981 6.38348C18.1784 6.28721 18.1784 6.13118 18.0981 6.03485L18.0444 5.9704C17.9642 5.87413 17.8338 5.87413 17.7535 5.9704L17.3516 6.45356L17.6955 6.86624Z" fill="black"/>
<path d="M18.3837 7.692L18.7856 7.20924C18.8659 7.11297 18.8659 6.95647 18.7856 6.8602L18.7326 6.79657C18.6523 6.7003 18.522 6.7003 18.4417 6.79657L18.0391 7.27891L18.3837 7.692Z" fill="black"/>
<path d="M19.0715 8.51772L19.4734 8.03497C19.5537 7.93864 19.5544 7.78261 19.4741 7.68634L19.4204 7.62188C19.3401 7.52562 19.2098 7.52562 19.1295 7.62188L18.7275 8.10464L19.0715 8.51772Z" fill="black"/>
<path d="M13.6744 9.69131C13.7547 9.78758 13.8844 9.78758 13.9653 9.69131L14.3673 9.20855L14.0227 8.79541L13.6207 9.27775C13.5405 9.37443 13.5405 9.53053 13.6207 9.62686L13.6744 9.69131Z" fill="black"/>
<path d="M14.7112 9.6217L14.3092 10.104C14.229 10.2003 14.229 10.3568 14.3092 10.4531L14.3623 10.5167C14.4425 10.613 14.5729 10.613 14.6531 10.5167L15.0551 10.0344L14.7112 9.6217Z" fill="black"/>
<path d="M15.3987 10.447L14.9967 10.9297C14.9165 11.026 14.9165 11.1821 14.9967 11.2783L15.0504 11.3424C15.1307 11.4391 15.2604 11.4391 15.3406 11.3424L15.7432 10.86L15.3987 10.447Z" fill="black"/>
<path d="M16.0878 11.2728L15.6858 11.7556C15.6048 11.8519 15.6048 12.0084 15.6851 12.1042L15.7389 12.1683C15.8191 12.2646 15.9495 12.2646 16.0297 12.1683L16.4317 11.6859L16.0878 11.2728Z" fill="black"/>
<path d="M20.1079 8.44769C20.0283 8.35183 19.8979 8.35183 19.8177 8.44816L19.415 8.9305L19.7596 9.34318L20.1616 8.86084C20.2418 8.76451 20.2418 8.60806 20.1616 8.51179L20.1079 8.44769Z" fill="black"/>
<path d="M13.7217 7.91873L17.8506 12.8734L20.0608 10.2211L15.9319 5.26644L13.7217 7.91873Z" fill="black"/>
<path d="M16.3727 12.5813C16.2924 12.6776 16.2924 12.8336 16.3727 12.9299L16.4257 12.9939C16.5067 13.0906 16.6363 13.0903 16.7166 12.9939L17.1185 12.5112L16.7746 12.0985L16.3727 12.5813Z" fill="black"/>
<path d="M23.062 6.87453C22.6665 7.34914 22.0253 7.34867 21.6298 6.87453C21.2343 6.39992 21.2343 5.63093 21.6298 5.15591L20.2964 3.55589C19.901 4.03044 19.2598 4.03003 18.8643 3.55589C18.4688 3.08134 18.4688 2.3123 18.8643 1.83722L17.3332 0.000366211L0 20.7999L1.53105 22.6367C1.92651 22.1626 2.56777 22.1626 2.96328 22.6367C3.35874 23.1117 3.35874 23.8812 2.96328 24.3554L4.29658 25.9553C4.69209 25.4812 5.3333 25.4812 5.72876 25.9553C6.12427 26.4304 6.12427 27.1999 5.72876 27.674L7.66675 30L25 9.20017L23.062 6.87453ZM22.9294 10.7954L22.2617 11.5971L21.5345 10.7241L21.0967 11.2494L21.8239 12.1221L21.1562 12.9237L20.429 12.0507L19.9912 12.576L20.7184 13.4487L20.0507 14.25L19.3235 13.3773L18.8857 13.9022L19.613 14.7752L18.9452 15.5765L18.218 14.7039L17.7803 15.2288L18.5075 16.1018L17.8397 16.9031L17.1125 16.0304L16.6748 16.5553L17.402 17.4283L16.7342 18.2296L16.007 17.3569L15.5692 17.8814L16.2964 18.7549L15.6287 19.5561L14.9015 18.6835L14.4638 19.2084L15.191 20.0814L14.5233 20.8827L13.796 20.0101L13.3583 20.535L14.0855 21.408L13.4178 22.2093L12.6906 21.3362L12.2528 21.8611L12.9807 22.7346L12.3123 23.5358L11.5851 22.6632L11.1473 23.1876L11.8752 24.0611L11.2067 24.8624L10.4795 23.9898L10.0418 24.5146L10.769 25.3878L10.1013 26.189L9.37402 25.3159L8.93628 25.8408L9.66421 26.7139L8.99575 27.5156L8.26855 26.6425L7.83076 27.1674L8.55869 28.0404L7.6667 29.1108L6.4043 27.5964C6.66938 26.9133 6.56768 26.0738 6.09912 25.511C5.62983 24.9484 4.93057 24.8263 4.36172 25.1444L3.63882 24.2778C3.90391 23.5947 3.8022 22.7551 3.33359 22.1925C2.86431 21.6297 2.16509 21.5076 1.59619 21.8258L0.740723 20.7996L17.3332 0.889409L18.1886 1.91509C17.9228 2.59771 18.0246 3.43765 18.4938 3.99998C18.9624 4.56312 19.6624 4.68517 20.2313 4.36666L20.9541 5.23367C20.6883 5.91722 20.7901 6.75628 21.2593 7.31855C21.7279 7.88169 22.4279 8.0038 22.9967 7.68529L24.2591 9.20017L23.3671 10.2706L22.6399 9.39746L22.2021 9.92281L22.9294 10.7954Z" fill="black"/>
</g>
<defs>
<clipPath id="clip0_21_378">
<rect width="25" height="30" fill="white"/>
</clipPath>
</defs>
</svg>
