<svg width="25" height="30" viewBox="0 0 25 30" fill="none" xmlns="http://www.w3.org/2000/svg">
<path opacity="0.4" d="M19.791 21.25V22.5" stroke="black" stroke-width="4" stroke-linecap="round"/>
<path opacity="0.4" d="M17.1875 21.25V22.5" stroke="black" stroke-width="4" stroke-linecap="round"/>
<path opacity="0.4" d="M14.583 21.25V22.5" stroke="black" stroke-width="4" stroke-linecap="round"/>
<path opacity="0.4" d="M11.9785 21.25V22.5" stroke="black" stroke-width="4" stroke-linecap="round"/>
<path d="M19.7913 6.39706L20.5418 6.13608L20.5393 6.12578L20.5366 6.11554L19.7913 6.39706ZM5.20801 6.39706L4.46281 6.11554L4.46013 6.12578L4.45764 6.13608L5.20801 6.39706ZM7.81218 4.6875H17.1872V2.8125H7.81218V4.6875ZM17.1872 4.6875C17.6331 4.6875 17.9718 4.81269 18.2451 5.06841C18.5257 5.33099 18.8172 5.80583 19.0461 6.67858L20.5366 6.11554C20.2447 5.003 19.8093 4.1543 19.2057 3.58968C18.5949 3.01819 17.8919 2.8125 17.1872 2.8125V4.6875ZM7.81218 2.8125C7.10754 2.8125 6.40448 3.01819 5.79359 3.58968C5.19005 4.1543 4.75469 5.003 4.46281 6.11554L5.95321 6.67858C6.18217 5.80583 6.47359 5.33099 6.75427 5.06841C7.02761 4.81269 7.36622 4.6875 7.81218 4.6875V2.8125ZM19.0409 6.65805L22.0113 18.9556L23.5121 18.4336L20.5418 6.13608L19.0409 6.65805ZM4.45764 6.13608L1.48731 18.4336L2.98805 18.9556L5.95837 6.65805L4.45764 6.13608ZM5.72884 17.9228H19.2705V16.0478H5.72884V17.9228ZM19.2705 25.3125H5.72884V27.1875H19.2705V25.3125ZM5.72884 25.3125C4.98015 25.3125 4.48087 25.3113 4.10097 25.2621C3.73652 25.215 3.57081 25.1325 3.46012 25.0385L2.55769 26.5693C2.97246 26.9214 3.43524 27.0619 3.93364 27.1264C4.41659 27.1888 5.01455 27.1875 5.72884 27.1875V25.3125ZM1.30176 21.6176C1.30176 22.5286 1.30092 23.2785 1.34923 23.882C1.39859 24.4985 1.5051 25.0636 1.77342 25.5739L3.09481 24.5733C3.01202 24.4159 2.94298 24.1824 2.90456 23.7026C2.8651 23.2098 2.86426 22.5655 2.86426 21.6176H1.30176ZM3.46012 25.0385C3.31814 24.918 3.19337 24.7606 3.09481 24.5733L1.77342 25.5739C1.97885 25.9645 2.24471 26.3035 2.55769 26.5693L3.46012 25.0385ZM22.1351 21.6176C22.1351 22.5655 22.1343 23.2098 22.0948 23.7026C22.0563 24.1824 21.9874 24.4159 21.9046 24.5733L23.2259 25.5739C23.4943 25.0636 23.6007 24.4985 23.6501 23.882C23.6984 23.2785 23.6976 22.5286 23.6976 21.6176H22.1351ZM19.2705 27.1875C19.9848 27.1875 20.5828 27.1888 21.0657 27.1264C21.5642 27.0619 22.0269 26.9214 22.4417 26.5693L21.5393 25.0385C21.4285 25.1325 21.2628 25.215 20.8984 25.2621C20.5185 25.3113 20.0192 25.3125 19.2705 25.3125V27.1875ZM21.9046 24.5733C21.806 24.7606 21.6812 24.918 21.5393 25.0385L22.4417 26.5693C22.7547 26.3035 23.0205 25.9645 23.2259 25.5739L21.9046 24.5733ZM19.2705 17.9228C20.0192 17.9228 20.5185 17.9241 20.8984 17.9731C21.2628 18.0203 21.4285 18.1028 21.5393 18.1968L22.4417 16.6661C22.0269 16.314 21.5642 16.1734 21.0657 16.109C20.5828 16.0465 19.9848 16.0478 19.2705 16.0478V17.9228ZM23.6976 21.6176C23.6976 20.7066 23.6984 19.9568 23.6501 19.3534C23.6007 18.7368 23.4943 18.1716 23.2259 17.6614L21.9046 18.662C21.9874 18.8195 22.0563 19.0529 22.0948 19.5326C22.1343 20.0255 22.1351 20.6698 22.1351 21.6176H23.6976ZM21.5393 18.1968C21.6812 18.3173 21.806 18.4746 21.9046 18.662L23.2259 17.6614C23.0205 17.2708 22.7547 16.9318 22.4417 16.6661L21.5393 18.1968ZM5.72884 16.0478C5.01455 16.0478 4.41659 16.0465 3.93364 16.109C3.43524 16.1734 2.97246 16.314 2.55769 16.6661L3.46012 18.1968C3.57081 18.1028 3.73652 18.0203 4.10097 17.9731C4.48087 17.9241 4.98015 17.9228 5.72884 17.9228V16.0478ZM2.86426 21.6176C2.86426 20.6698 2.8651 20.0255 2.90456 19.5326C2.94298 19.0529 3.01202 18.8195 3.09481 18.662L1.77342 17.6614C1.5051 18.1716 1.39859 18.7368 1.34923 19.3534C1.30092 19.9568 1.30176 20.7066 1.30176 21.6176H2.86426ZM2.55769 16.6661C2.24471 16.9318 1.97885 17.2708 1.77342 17.6614L3.09481 18.662C3.19337 18.4746 3.31814 18.3173 3.46012 18.1968L2.55769 16.6661Z" fill="black"/>
</svg>
