<svg width="110" height="49" viewBox="0 0 110 49" fill="none" xmlns="http://www.w3.org/2000/svg">
<path d="M32.5125 44C32.2292 44 32.025 43.85 31.9 43.55L25.4125 28.825C25.3042 28.5833 25.3042 28.3833 25.4125 28.225C25.5292 28.0667 25.6875 27.9667 25.8875 27.925C26.2292 27.8417 26.4667 27.9667 26.6 28.3L32.85 42.475H32.3875L38.6 28.3C38.7333 27.9667 38.975 27.8417 39.325 27.925C39.5417 27.9667 39.7 28.0667 39.8 28.225C39.9 28.3833 39.9 28.5833 39.8 28.825L33.2875 43.55C33.1625 43.85 32.95 44 32.65 44H32.5125ZM44.5707 44C43.2707 44 42.3165 43.7 41.7082 43.1C41.1082 42.4917 40.8082 41.5375 40.8082 40.2375C40.8082 38.9375 41.1124 37.9833 41.7207 37.375C42.329 36.7667 43.279 36.4625 44.5707 36.4625H50.2582C50.2415 35.3625 49.9915 34.5958 49.5082 34.1625C49.0332 33.7208 48.2207 33.5 47.0707 33.5H45.6207C44.5624 33.5 43.7874 33.6125 43.2957 33.8375C42.804 34.0625 42.4999 34.4458 42.3832 34.9875C42.3249 35.1958 42.2457 35.35 42.1457 35.45C42.054 35.5417 41.904 35.5875 41.6957 35.5875C41.479 35.5875 41.3082 35.5292 41.1832 35.4125C41.0665 35.2875 41.0249 35.1208 41.0582 34.9125C41.1665 33.9625 41.5957 33.2708 42.3457 32.8375C43.104 32.4042 44.1957 32.1875 45.6207 32.1875H47.0707C48.629 32.1875 49.7665 32.55 50.4832 33.275C51.2082 33.9917 51.5707 35.1292 51.5707 36.6875V43.3375C51.5707 43.7792 51.354 44 50.9207 44C50.479 44 50.2582 43.7792 50.2582 43.3375V42.1C49.4582 43.3667 48.029 44 45.9707 44H44.5707ZM44.5707 42.6875H45.9707C46.779 42.6875 47.4874 42.6 48.0957 42.425C48.7124 42.2417 49.2082 41.95 49.5832 41.55C49.9582 41.15 50.1832 40.6167 50.2582 39.95V37.775H44.5707C43.6457 37.775 43.004 37.9542 42.6457 38.3125C42.2957 38.6625 42.1207 39.3042 42.1207 40.2375C42.1207 41.1625 42.2957 41.8042 42.6457 42.1625C43.004 42.5125 43.6457 42.6875 44.5707 42.6875ZM59.4615 44C58.2782 44 57.4074 43.725 56.849 43.175C56.299 42.625 56.024 41.7625 56.024 40.5875V27.3125C56.024 26.8792 56.2449 26.6625 56.6865 26.6625C57.1199 26.6625 57.3365 26.8792 57.3365 27.3125V40.5875C57.3365 41.3958 57.4865 41.95 57.7865 42.25C58.0865 42.5417 58.6407 42.6875 59.449 42.6875C59.899 42.6875 60.124 42.9042 60.124 43.3375C60.1324 43.7792 59.9115 44 59.4615 44ZM66.7369 44C65.5536 44 64.6827 43.725 64.1244 43.175C63.5744 42.625 63.2994 41.7625 63.2994 40.5875V27.3125C63.2994 26.8792 63.5202 26.6625 63.9619 26.6625C64.3952 26.6625 64.6119 26.8792 64.6119 27.3125V40.5875C64.6119 41.3958 64.7619 41.95 65.0619 42.25C65.3619 42.5417 65.9161 42.6875 66.7244 42.6875C67.1744 42.6875 67.3994 42.9042 67.3994 43.3375C67.4077 43.7792 67.1869 44 66.7369 44ZM71.0615 38.6V39.5125C71.0615 40.6875 71.2949 41.5125 71.7615 41.9875C72.2365 42.4542 73.0699 42.6875 74.2615 42.6875H76.3115C77.3615 42.6875 78.124 42.5542 78.599 42.2875C79.0824 42.0125 79.3699 41.5417 79.4615 40.875C79.4949 40.6667 79.5615 40.5083 79.6615 40.4C79.7699 40.2917 79.9324 40.2375 80.149 40.2375C80.3657 40.2375 80.5282 40.3 80.6365 40.425C80.7532 40.5417 80.799 40.7083 80.774 40.925C80.6657 41.975 80.2449 42.75 79.5115 43.25C78.7782 43.75 77.7115 44 76.3115 44H74.2615C72.7032 44 71.5615 43.6417 70.8365 42.925C70.1115 42.2 69.749 41.0625 69.749 39.5125V36.6875C69.749 35.1125 70.1115 33.9667 70.8365 33.25C71.5615 32.525 72.7032 32.1708 74.2615 32.1875H76.3115C77.8699 32.1875 79.0074 32.55 79.724 33.275C80.449 33.9917 80.8115 35.1292 80.8115 36.6875V37.9375C80.8115 38.3792 80.5949 38.6 80.1615 38.6H71.0615ZM74.2615 33.5C73.0699 33.4833 72.2365 33.7125 71.7615 34.1875C71.2949 34.6542 71.0615 35.4875 71.0615 36.6875V37.2875H79.499V36.6875C79.499 35.4958 79.2657 34.6667 78.799 34.2C78.3324 33.7333 77.5032 33.5 76.3115 33.5H74.2615ZM88.125 49C87.0333 49 86.225 48.7375 85.7 48.2125C85.1833 47.6875 84.925 46.8708 84.925 45.7625C84.925 45.3292 85.1417 45.1125 85.575 45.1125C86.0167 45.1125 86.2375 45.3292 86.2375 45.7625C86.2375 46.5125 86.3708 47.0208 86.6375 47.2875C86.9042 47.5542 87.4 47.6875 88.125 47.6875H92.45C93.1833 47.6875 93.6833 47.5542 93.95 47.2875C94.2167 47.0208 94.35 46.5125 94.35 45.7625V42.325C93.875 42.95 93.2792 43.3875 92.5625 43.6375C91.8458 43.8875 91.0083 44.0125 90.05 44.0125H89.35C87.8167 44.0125 86.6958 43.6583 85.9875 42.95C85.2792 42.2417 84.925 41.1292 84.925 39.6125V32.825C84.925 32.3833 85.1417 32.1625 85.575 32.1625C86.0167 32.1625 86.2375 32.3833 86.2375 32.825V39.6125C86.2375 40.7708 86.4625 41.575 86.9125 42.025C87.3708 42.475 88.1833 42.7 89.35 42.7H90.05C91.5083 42.7 92.5875 42.4458 93.2875 41.9375C93.9958 41.4208 94.35 40.6458 94.35 39.6125V32.825C94.35 32.3833 94.5667 32.1625 95 32.1625C95.4417 32.1625 95.6625 32.3833 95.6625 32.825V45.7625C95.6625 46.8708 95.4 47.6875 94.875 48.2125C94.3583 48.7375 93.55 49 92.45 49H88.125Z" fill="black"/>
<path d="M6.734 24.974C5.18267 24.974 4.03 24.6317 3.276 23.947C2.53067 23.2537 2.132 22.166 2.08 20.684C2.07133 20.476 2.12767 20.3113 2.249 20.19C2.379 20.06 2.548 19.995 2.756 19.995C2.964 19.995 3.12867 20.0557 3.25 20.177C3.37133 20.2983 3.44067 20.463 3.458 20.671C3.49267 21.763 3.75267 22.5257 4.238 22.959C4.72333 23.3923 5.55533 23.609 6.734 23.609H10.478C11.7087 23.609 12.5623 23.3707 13.039 22.894C13.5243 22.4087 13.767 21.5593 13.767 20.346C13.767 19.1153 13.5243 18.2617 13.039 17.785C12.5623 17.2997 11.7087 17.057 10.478 17.057H6.916C5.39067 17.057 4.27267 16.7017 3.562 15.991C2.85133 15.2803 2.496 14.1667 2.496 12.65C2.496 11.1333 2.847 10.0197 3.549 9.309C4.25967 8.59833 5.37333 8.243 6.89 8.243H10.53C11.986 8.243 13.065 8.568 13.767 9.218C14.4777 9.868 14.859 10.8907 14.911 12.286C14.9283 12.494 14.872 12.663 14.742 12.793C14.6207 12.9143 14.4517 12.975 14.235 12.975C14.0357 12.975 13.8753 12.9143 13.754 12.793C13.6327 12.6717 13.5633 12.507 13.546 12.299C13.5113 11.3023 13.2687 10.6047 12.818 10.206C12.3673 9.80733 11.6047 9.608 10.53 9.608H6.89C5.75467 9.608 4.966 9.83333 4.524 10.284C4.082 10.726 3.861 11.5147 3.861 12.65C3.861 13.7853 4.082 14.5783 4.524 15.029C4.97467 15.471 5.772 15.692 6.916 15.692H10.478C12.09 15.692 13.2687 16.069 14.014 16.823C14.7593 17.5683 15.132 18.7427 15.132 20.346C15.132 21.9493 14.7593 23.1237 14.014 23.869C13.2687 24.6057 12.09 24.974 10.478 24.974H6.734ZM20.0358 10.349C19.4378 10.349 19.1388 10.0413 19.1388 9.426V8.841C19.1388 8.243 19.4378 7.944 20.0358 7.944H20.6208C21.2015 7.944 21.4918 8.243 21.4918 8.841V9.426C21.4918 10.0413 21.2015 10.349 20.6208 10.349H20.0358ZM20.3348 25C19.8755 25 19.6458 24.7703 19.6458 24.311V13.391C19.6458 12.9403 19.8755 12.715 20.3348 12.715C20.7855 12.715 21.0108 12.9403 21.0108 13.391V24.311C21.0108 24.7703 20.7855 25 20.3348 25ZM29.4415 25C28.2109 25 27.3052 24.714 26.7245 24.142C26.1525 23.57 25.8665 22.673 25.8665 21.451V7.645C25.8665 7.19433 26.0962 6.969 26.5555 6.969C27.0062 6.969 27.2315 7.19433 27.2315 7.645V21.451C27.2315 22.2917 27.3875 22.868 27.6995 23.18C28.0115 23.4833 28.5879 23.635 29.4285 23.635C29.8965 23.635 30.1305 23.8603 30.1305 24.311C30.1392 24.7703 29.9095 25 29.4415 25ZM33.823 10.349C33.225 10.349 32.926 10.0413 32.926 9.426V8.841C32.926 8.243 33.225 7.944 33.823 7.944H34.408C34.9886 7.944 35.279 8.243 35.279 8.841V9.426C35.279 10.0413 34.9886 10.349 34.408 10.349H33.823ZM34.122 25C33.6626 25 33.433 24.7703 33.433 24.311V13.391C33.433 12.9403 33.6626 12.715 34.122 12.715C34.5726 12.715 34.798 12.9403 34.798 13.391V24.311C34.798 24.7703 34.5726 25 34.122 25ZM43.9957 25C42.375 25 41.1877 24.623 40.4337 23.869C39.6797 23.115 39.3027 21.9277 39.3027 20.307V17.369C39.3027 15.7483 39.6753 14.5653 40.4207 13.82C41.1747 13.066 42.3663 12.6977 43.9957 12.715H46.1277C47.4017 12.715 48.3723 12.9317 49.0397 13.365C49.7157 13.7897 50.1187 14.4613 50.2487 15.38C50.2747 15.614 50.2227 15.7917 50.0927 15.913C49.9713 16.0343 49.798 16.095 49.5727 16.095C49.3647 16.095 49.2087 16.043 49.1047 15.939C49.0007 15.8263 48.9227 15.666 48.8707 15.458C48.7753 14.9553 48.5197 14.6 48.1037 14.392C47.6877 14.184 47.029 14.08 46.1277 14.08H43.9957C42.7563 14.0627 41.8897 14.2967 41.3957 14.782C40.9103 15.2587 40.6677 16.121 40.6677 17.369V20.307C40.6677 21.5463 40.9103 22.413 41.3957 22.907C41.8897 23.3923 42.7563 23.635 43.9957 23.635H46.1277C47.029 23.635 47.6877 23.531 48.1037 23.323C48.5197 23.115 48.7753 22.7553 48.8707 22.244C48.9227 22.036 49.0007 21.88 49.1047 21.776C49.2087 21.6633 49.3647 21.607 49.5727 21.607C49.798 21.607 49.9713 21.672 50.0927 21.802C50.2227 21.9233 50.2747 22.0967 50.2487 22.322C50.1187 23.2407 49.7157 23.9167 49.0397 24.35C48.3723 24.7833 47.4017 25 46.1277 25H43.9957ZM58.8492 25C57.2285 25 56.0412 24.6273 55.2872 23.882C54.5332 23.128 54.1562 21.945 54.1562 20.333V17.395C54.1562 15.757 54.5332 14.5653 55.2872 13.82C56.0412 13.066 57.2285 12.6977 58.8492 12.715H60.9812C62.6018 12.715 63.7848 13.092 64.5302 13.846C65.2842 14.5913 65.6612 15.7743 65.6612 17.395V20.307C65.6612 21.9277 65.2842 23.115 64.5302 23.869C63.7848 24.623 62.6018 25 60.9812 25H58.8492ZM55.5212 20.333C55.5212 21.555 55.7638 22.413 56.2492 22.907C56.7432 23.3923 57.6098 23.635 58.8492 23.635H60.9812C62.2205 23.635 63.0828 23.3923 63.5682 22.907C64.0535 22.413 64.2962 21.5463 64.2962 20.307V17.395C64.2962 16.1557 64.0535 15.2933 63.5682 14.808C63.0828 14.3227 62.2205 14.08 60.9812 14.08H58.8492C58.0172 14.0713 57.3585 14.171 56.8732 14.379C56.3878 14.587 56.0412 14.9337 55.8332 15.419C55.6252 15.9043 55.5212 16.563 55.5212 17.395V20.333ZM70.8622 25C70.4029 25 70.1732 24.7703 70.1732 24.311V13.391C70.1732 12.9403 70.4029 12.715 70.8622 12.715C71.3129 12.715 71.5382 12.9403 71.5382 13.391V14.639C72.3615 13.3563 73.8522 12.715 76.0102 12.715H76.7382C78.3589 12.715 79.5419 13.092 80.2872 13.846C81.0412 14.5913 81.4182 15.7743 81.4182 17.395V24.311C81.4182 24.7703 81.1929 25 80.7422 25C80.2829 25 80.0532 24.7703 80.0532 24.311V17.395C80.0532 16.1557 79.8062 15.2933 79.3122 14.808C78.8269 14.3227 77.9689 14.08 76.7382 14.08H76.0102C74.6669 14.08 73.6095 14.2923 72.8382 14.717C72.0669 15.1417 71.6335 15.8047 71.5382 16.706V24.311C71.5382 24.7703 71.3129 25 70.8622 25Z" fill="#396320"/>
</svg>
